<svg width="100" height="100" viewBox="0 0 100 100" fill="none" xmlns="http://www.w3.org/2000/svg">
<rect x="0.823242" y="36.8231" width="72" height="72" rx="16" transform="rotate(-30 0.823242 36.8231)" fill="#583FBC"/>
<path d="M53.7683 31.977C50.0907 31.1664 47.3676 32.7426 45.6159 34.4123C43.8707 36.0756 41.7416 37.3048 39.4286 37.9846C37.1067 38.6668 34.3801 40.237 33.2432 43.8272C31.0891 50.6297 39.0592 55.9581 40.9045 56.6032C42.7499 57.2482 43.7729 58.938 46.5731 61.9776C49.3733 65.0171 52.2842 67.755 53.9918 66.1041C55.6993 64.4531 54.8349 61.7214 53.4615 58.1906C53.3671 57.9478 53.282 57.718 53.2054 57.5001C52.6807 56.0054 54.5962 54.8995 55.6282 56.1013C55.7785 56.2764 55.9353 56.4651 56.0984 56.6682C58.4695 59.623 60.403 61.7374 62.6865 61.0841C64.97 60.4309 64.0544 56.541 62.8222 52.5962C61.5899 48.6514 60.638 46.9205 61.0021 44.9998C61.3661 43.0792 60.7366 33.5127 53.7683 31.977ZM40.7719 41.6401C40.9532 42.0817 40.7432 42.5867 40.3029 42.7697C40.1458 42.8362 36.6855 44.3551 37.8219 48.4341C37.9302 48.823 37.7553 49.224 37.4211 49.4169C37.3591 49.4527 37.2918 49.4813 37.2197 49.5014C36.7588 49.6298 36.281 49.3602 36.1526 48.8993C34.9073 44.4297 37.8901 41.8882 39.641 41.1681C40.0836 40.9862 40.5898 41.1976 40.7719 41.6401Z" fill="white"/>
</svg>
