<svg width="132" height="132" viewBox="0 0 132 132" fill="none" xmlns="http://www.w3.org/2000/svg">
<rect x="48.4307" y="0.430786" width="96" height="96" rx="16" transform="rotate(30 48.4307 0.430786)" fill="white" fill-opacity="0.2" stroke="url(#paint0_linear_401_136)"/>
<rect x="52.823" y="16.8231" width="72" height="72" rx="16" transform="rotate(30 52.823 16.8231)" fill="white"/>
<path fill-rule="evenodd" clip-rule="evenodd" d="M57.346 80.0825C57.4576 80.2583 57.6118 80.404 57.7914 80.5058C57.9709 80.6075 58.1735 80.666 58.3838 80.6742L65.123 80.8945C67.0328 80.9592 68.679 80.749 70.1563 80.2507C73.371 79.1627 76.0573 76.9563 77.716 74.0396L83.1889 64.4194C83.8205 63.3121 83.6641 61.9083 82.7985 60.9311L75.074 52.1856C74.6098 51.6572 73.9753 51.2965 73.2925 51.1703L61.8266 48.989C60.5451 48.7455 59.2602 49.3266 58.6279 50.4354L53.1591 60.0485C51.4979 62.9694 50.9739 66.4073 51.684 69.7311C52.008 71.2505 52.6666 72.7743 53.7008 74.3924L57.346 80.0825ZM62.4866 68.0303C62.5824 68.3611 62.8025 68.6241 63.0832 68.7823C63.363 68.942 63.701 68.9975 64.0341 68.9105L72.8653 66.6115C73.5292 66.4381 73.9122 65.7647 73.7227 65.1061C73.5319 64.4468 72.84 64.0511 72.1761 64.2245L64.5471 66.2099L63.6611 63.1469C63.4703 62.4875 62.7791 62.0941 62.1137 62.2667C61.4498 62.4401 61.0668 63.1135 61.2577 63.7729L62.4866 68.0303Z" fill="#583FBC"/>
<defs>
<linearGradient id="paint0_linear_401_136" x1="48.4307" y1="0.430786" x2="144.431" y2="96.4308" gradientUnits="userSpaceOnUse">
<stop stop-color="white"/>
<stop offset="1" stop-color="white" stop-opacity="0"/>
</linearGradient>
</defs>
</svg>
